<svg xmlns="http://www.w3.org/2000/svg" width="146" height="38.875" viewBox="0 0 146 38.875">
  <defs>
    <style>
      .cls-1 {
        fill: #a3bbc8;
        fill-rule: evenodd;
      }

      .cls-2 {
        font-size: 36px;
        fill: #436372;
        font-family: Rubik;
        font-weight: 500;
      }
    </style>
  </defs>
  <path id="Path_324" data-name="Path 324" class="cls-1" d="M2.157,30.674a1.13,1.13,0,0,0,.622.387l48.041,9.8a1.138,1.138,0,0,0,.908-0.212,0.875,0.875,0,0,0,.31-0.8h0L45.787,2.764a0.959,0.959,0,0,0-.449-0.645,1.338,1.338,0,0,0-.965-0.051L9.179,16.118a0.9,0.9,0,0,0-.507.452C8.5,16.895,2.178,29.646,2.09,29.827A0.806,0.806,0,0,0,2.157,30.674ZM47.743,37.11L27.693,25.965l10.339-2.159Zm-37.7-18.883L22.569,25.21,4.736,28.925Zm1.662-1.172L43.24,4.468,37.682,22.056,25.311,24.639Zm37.654,19-9.779-13.4,4.9-15.52Zm-3.887,1.9-38.05-7.76,17.523-3.65Z" transform="translate(-2 -2)"/>
  <text id="Glee." class="cls-2" x="62" y="32">Glee.</text>
</svg>
